# xmcd CD database file
#
# Track frame offsets:
#	150
#	34362
#	56862
#	80938
#	92159
#	109334
#	119255
#	139515
#	151607
#	173810
#	181871
#	218258
#	247075
#	269905
#
# Disc length: 3797 seconds
#
# Revision: 0
# Processed by: cddbd v1.5.2PL0 Copyright (c) Steve Scherf et al.
# Submitted via: CDex 1.70beta2
#
DISCID=c90ed30e
DTITLE=Soft Machine - 2018 Hidden Details 隠された真実
DYEAR=2018
DGENRE=Jazz
TTITLE0=Hidden Details
TTITLE1=The Man Who Waved At Train
TTITLE2=Graunnd Lift
TTITLE3=Heart Off Gusrd
TTITLE4=Broken Hill
TTITLE5=Flight Of The Jett
TTITLE6=One Glove
TTITLE7=Out Bloody Intro
TTITLE8=Out Bloody Rageous (Part 1)
TTITLE9=Drafting White
TTITLE10=Life On Bridges
TTITLE11=Fourteen Hour Drem
TTITLE12=Breathe
TTITLE13=Night Sky
EXTD=YEAR: 2018
EXTT0=
EXTT1=
EXTT2=
EXTT3=
EXTT4=
EXTT5=
EXTT6=
EXTT7=
EXTT8=
EXTT9=
EXTT10=
EXTT11=
EXTT12=
EXTT13=
PLAYORDER=
